#!OML:ASF H:\Terrain\Walking\May29\JustinRory\rory.ASF
:FULLY-SPECIFIED
:DEGREES
341
root 11.5163 17.4535 5.80453 -14.1776 19.9532 -16.5577
lowerback 9.31673 6.49174 -5.82706
upperback 5.31355 8.17712 -3.11607
thorax 0.0251134 4.02984 -0.767928
lowerneck -0.495784 -16.3075 -13.9337
upperneck 17.7063 -26.5655 23.4225
head 11.0728 -12.1529 7.01834
rclavicle -6.59965e-014 -9.54166e-015
rhumerus 15.2176 -55.5782 -69.0832
rradius 12.6527
rwrist 47.6717
rhand -21.6945 22.6867
rfingers 7.12502
rthumb 4.70373 -7.24106
lclavicle -6.59965e-014 -9.54166e-015
lhumerus -38.2899 12.3459 45.8339
lradius 53.3871
lwrist 24.0929
lhand -27.1267 23.5699
lfingers 7.12502
lthumb -0.54242 53.5489
rfemur -4.16896 -5.17397 20.9677
rtibia 34.6358
rfoot -6.79364 -16.6393
rtoes -9.07489
lfemur -40.2377 0.00185022 -8.37477
ltibia 58.5101
lfoot -9.43737 7.86529
ltoes -5.68161
342
root 11.5957 17.5099 5.96183 -13.9191 19.551 -16.5753
lowerback 8.92905 6.39199 -6.24805
upperback 5.40908 8.05317 -3.13663
thorax 0.28894 3.95204 -0.498998
lowerneck -0.812648 -16.2405 -13.9271
upperneck 17.4059 -26.5274 23.931
head 11.1091 -12.0985 7.17489
rclavicle -1.74931e-014 9.54166e-015
rhumerus 13.4672 -53.1725 -67.3972
rradius 13.1973
rwrist 44.3101
rhand -21.1148 22.7392
rfingers 7.12502
rthumb 5.26346 -7.17542
lclavicle -1.74931e-014 9.54166e-015
lhumerus -38.2282 11.9215 46.3349
lradius 53.3538
lwrist 24.3622
lhand -26.055 24.61
lfingers 7.12502
lthumb 0.492667 54.5892
rfemur -3.38592 -5.19518 20.9906
rtibia 33.8222
rfoot -5.65708 -16.2265
rtoes -12.9113
lfemur -39.2454 -1.02415 -7.47935
ltibia 55.1348
lfoot -9.15997 8.30554
ltoes -5.98663
343
root 11.6825 17.5508 6.1129 -13.7255 19.1323 -16.8582
lowerback 8.80356 6.59219 -5.94717
upperback 5.40175 8.3505 -2.97794
thorax 0.354117 4.10314 -0.5131
lowerneck -1.05122 -16.487 -14.5431
upperneck 17.2285 -26.9244 24.3437
head 11.3598 -12.2816 7.28838
rclavicle 8.66701e-014 -3.81667e-014
rhumerus 11.3046 -51.5635 -64.5234
rradius 13.613
rwrist 40.9339
rhand -20.614 23.0935
rfingers 7.12502
rthumb 5.747 -6.80853
lclavicle 8.66701e-014 -3.81667e-014
lhumerus -37.6785 10.9494 47.5844
lradius 53.0656
lwrist 24.367
lhand -25.1704 24.3167
lfingers 7.12502
lthumb 1.34704 54.2922
rfemur -2.8546 -5.20482 21.1962
rtibia 33.275
rfoot -4.78956 -15.4681
rtoes -13.8097
lfemur -38.226 -2.08468 -6.34907
ltibia 51.9049
lfoot -8.93295 8.5695
ltoes -4.0181
344
root 11.7664 17.5887 6.26895 -13.8058 18.5174 -17.6284
lowerback 8.75273 6.78922 -5.10538
upperback 5.4277 8.67958 -2.68728
thorax 0.467726 4.28076 -0.687603
lowerneck -1.29674 -16.717 -14.9178
upperneck 16.8417 -27.1901 24.5297
head 11.4208 -12.4133 7.30356
rclavicle 5.00937e-014 1.90833e-014
rhumerus 9.74456 -50.6879 -62.3095
rradius 13.9705
rwrist 38.7246
rhand -20.5991 23.6151
rfingers 7.12502
rthumb 5.76145 -6.28662
lclavicle 5.00937e-014 1.90833e-014
lhumerus -36.7811 10.1114 48.7497
lradius 52.0616
lwrist 23.8942
lhand -24.2092 23.3933
lfingers 7.12502
lthumb 2.27532 53.3609
rfemur -2.45139 -5.16036 21.9789
rtibia 33.098
rfoot -4.14537 -14.8673
rtoes -15.2357
lfemur -37.0708 -3.04591 -4.63621
ltibia 48.7886
lfoot -8.36522 8.77584
ltoes -3.14705
345
root 11.853 17.6351 6.43226 -13.6491 18.0934 -17.61
lowerback 8.67214 6.82701 -5.267
upperback 5.38393 8.71933 -2.6561
thorax 0.437189 4.29594 -0.567804
lowerneck -1.27144 -16.7014 -14.873
upperneck 16.3331 -27.0585 24.5587
head 11.1893 -12.3812 7.32306
rclavicle -5.48646e-014 1.27222e-014
rhumerus 8.37321 -49.0367 -60.7495
rradius 14.5382
rwrist 36.452
rhand -20.2928 23.4766
rfingers 7.12502
rthumb 6.05713 -6.41682
lclavicle -5.48646e-014 1.27222e-014
lhumerus -36.5483 9.00392 49.3847
lradius 51.3612
lwrist 23.4293
lhand -23.2231 24.5
lfingers 7.12502
lthumb 3.22761 54.4553
rfemur -2.20335 -5.17791 21.9002
rtibia 33.2746
rfoot -3.55962 -14.3768
rtoes -18.9783
lfemur -35.82 -4.24878 -3.79395
ltibia 45.7787
lfoot -7.59397 9.36169
ltoes -4.85622
346
root 11.9502 17.6771 6.59186 -13.0081 17.8304 -16.7306
lowerback 8.37294 6.90677 -6.26185
upperback 5.2836 8.76915 -2.82911
thorax 0.383106 4.29973 -0.193851
lowerneck -1.13035 -16.6833 -15.1372
upperneck 15.929 -26.9899 24.7602
head 11.0751 -12.3896 7.44815
rclavicle 4.6118e-014 -3.18055e-014
rhumerus 7.29833 -47.453 -59.2876
rradius 14.9937
rwrist 34.2727
rhand -19.8713 23.1067
rfingers 7.12502
rthumb 6.46402 -6.77464
lclavicle 4.6118e-014 -3.18055e-014
lhumerus -36.406 7.76284 49.9975
lradius 50.7253
lwrist 22.6773
lhand -23.4 28.1709
lfingers 7.12502
lthumb 3.05685 58.1288
rfemur -2.29587 -5.02461 20.7977
rtibia 33.7434
rfoot -3.44403 -13.7766
rtoes -21.3132
lfemur -34.7374 -5.54408 -3.95042
ltibia 42.9524
lfoot -6.59974 10.1368
ltoes -7.14088
347
root 12.0482 17.7107 6.74979 -12.4953 17.4217 -16.0472
lowerback 8.16859 7.05567 -6.91819
upperback 5.26173 8.93599 -2.96195
thorax 0.394589 4.36799 0.0234917
lowerneck -1.55097 -16.7791 -15.3311
upperneck 15.785 -27.0777 24.8228
head 11.1664 -12.4076 7.42902
rclavicle -1.59028e-015 -3.18055e-015
rhumerus 6.79107 -47.0507 -58.2118
rradius 15.1333
rwrist 33.1694
rhand -19.8772 23.3849
rfingers 7.12502
rthumb 6.45838 -6.49664
lclavicle -1.59028e-015 -3.18055e-015
lhumerus -35.5843 7.23161 50.5382
lradius 49.3578
lwrist 20.7556
lhand -19.1578 24.8808
lfingers 7.12502
lthumb 7.15288 54.74
rfemur -2.56769 -4.63121 19.8913
rtibia 34.6526
rfoot -3.58489 -13.1708
rtoes -21.6487
lfemur -33.6236 -6.67364 -3.91291
ltibia 40.4092
lfoot -5.19597 10.4746
ltoes -6.33506
348
root 12.1439 17.7243 6.91485 -12.4053 16.8961 -15.9766
lowerback 8.24993 7.18591 -6.77183
upperback 5.24846 9.10783 -3.02502
thorax 0.359558 4.45851 -0.146478
lowerneck -2.02988 -16.8827 -15.3043
upperneck 15.6252 -27.1365 24.7297
head 11.1898 -12.4048 7.3234
rclavicle -1.63799e-013 0
rhumerus 6.48576 -47.5495 -57.4822
rradius 15.127
rwrist 32.7758
rhand -19.8246 23.9236
rfingers 7.12502
rthumb 6.50917 -5.95639
lclavicle -1.63799e-013 0
lhumerus -34.7648 6.43765 50.9719
lradius 48.0278
lwrist 18.6616
lhand -16.2237 22.7945
lfingers 7.12502
lthumb 9.98436 52.5377
rfemur -2.87058 -4.4165 19.6382
rtibia 36.0712
rfoot -3.09078 -12.4706
rtoes -23.3096
lfemur -32.3535 -7.52512 -3.38338
ltibia 38.1643
lfoot -2.75162 10.2357
ltoes -5.36978
349
root 12.2426 17.7032 7.08226 -12.2151 16.4167 -15.8603
lowerback 8.25166 7.22242 -6.64603
upperback 5.14038 9.15519 -3.12235
thorax 0.277342 4.48878 -0.324568
lowerneck -2.1196 -16.9046 -15.3533
upperneck 15.419 -27.0965 24.6617
head 11.1138 -12.3976 7.29803
rclavicle -5.00937e-014 5.40694e-014
rhumerus 6.33754 -47.8062 -57.0137
rradius 15.1882
rwrist 32.1859
rhand -19.6023 24.0099
rfingers 7.12502
rthumb 6.72373 -5.86335
lclavicle -5.00937e-014 5.40694e-014
lhumerus -34.4085 4.78784 51.5031
lradius 47.2101
lwrist 17.5155
lhand -14.1929 22.3233
lfingers 7.12502
lthumb 11.9431 51.9626
rfemur -3.43306 -4.50335 19.2472
rtibia 37.7293
rfoot -2.23481 -11.5745
rtoes -25.1091
lfemur -31.7971 -7.77743 -3.26217
ltibia 37.1503
lfoot 0.141738 9.70219
ltoes -4.53577
350
root 12.3441 17.6795 7.24223 -11.5781 16.2012 -14.993
lowerback 8.14002 7.20355 -7.33539
upperback 4.94929 9.0751 -3.35502
thorax 0.0812292 4.44215 -0.192737
lowerneck -2.25199 -16.9113 -15.5882
upperneck 15.4095 -27.0417 24.4986
head 11.1262 -12.3838 7.26857
rclavicle -5.80451e-014 6.99722e-014
rhumerus 6.50992 -47.6983 -56.7092
rradius 15.2894
rwrist 31.538
rhand -19.3311 23.5802
rfingers 7.12502
rthumb 6.98556 -6.28457
lclavicle -5.80451e-014 6.99722e-014
lhumerus -34.3157 3.35083 52.0823
lradius 46.6741
lwrist 16.3057
lhand -13.0086 22.6676
lfingers 7.12502
lthumb 13.0849 52.2372
rfemur -4.61065 -4.64457 17.9849
rtibia 39.8995
rfoot -1.48855 -10.5884
rtoes -25.4854
lfemur -32.0274 -7.45294 -4.32895
ltibia 37.1653
lfoot 1.73054 9.4599
ltoes -3.97498
351
root 12.4494 17.7393 7.39015 -11.0264 15.9409 -14.3398
lowerback 8.08599 7.25735 -7.68099
upperback 4.82039 9.1148 -3.51362
thorax -0.0494843 4.46079 -0.181074
lowerneck -2.47403 -16.9979 -16.0601
upperneck 15.2528 -27.081 24.4743
head 11.1883 -12.4166 7.28383
rclavicle -5.40694e-014 6.36111e-015
rhumerus 6.90517 -47.8479 -56.4123
rradius 15.3234
rwrist 31.1355
rhand -19.301 23.0568
rfingers 7.12502
rthumb 7.0146 -6.80697
lclavicle -5.40694e-014 6.36111e-015
lhumerus -34.0777 2.09674 52.7409
lradius 46.3748
lwrist 14.7103
lhand -12.0349 23.4853
lfingers 7.12502
lthumb 14.0234 52.9922
rfemur -5.96132 -4.44251 17.084
rtibia 42.2793
rfoot -0.367635 -9.70879
rtoes -24.8806
lfemur -31.8105 -6.62929 -5.35344
ltibia 38.451
lfoot -0.0124974 8.94938
ltoes -2.1438
